<svg width="21" height="21" viewBox="0 0 19 19"><path fill="#fff" fill-rule="evenodd" d="M9.5 19a9.5 9.5 0 1 0 0-19 9.5 9.5 0 0 0 0 19M7.75 2.238a2.247 2.247 0 0 1 3.208 2.888h.004l-.864 1.74a1.102 1.102 0 0 1-1.98.076l-1.033-1.52a2.247 2.247 0 0 1 .665-3.184m5.61 2.512a2.53 2.53 0 1 1 .597 4.855l.001.004-2.145-.318a1.24 1.24 0 0 1-.896-1.963l.005-.007.044-.057L12.28 5.58c.276-.37.65-.657 1.079-.829m-9.524 1.85a1.87 1.87 0 0 1 2.452.122V6.72l1.154 1.13a.917.917 0 0 1-.44 1.588l-1.508.437A1.87 1.87 0 0 1 3.835 6.6m6.79 3.693c.15-.07.313-.106.477-.106h.001c.184.001.366.047.529.134l1.708.71a2.283 2.283 0 1 1-1.727 4.23 2.28 2.28 0 0 1-1.38-1.812l-.004.002-.23-1.938a1.12 1.12 0 0 1 .627-1.22m-3.457.12c.194-.116.415-.178.64-.178h.001a1.233 1.233 0 0 1 1.224 1.399l-.064 2.048a2.518 2.518 0 0 1-4.971.51 2.52 2.52 0 0 1 1.266-2.78l-.004-.002z" clip-rule="evenodd"/></svg>