<svg width="80" height="63"><path fill="#F34F31" fill-rule="evenodd" d="M61.685 21.165h-15.94L62.82 0h16.377z" clip-rule="evenodd"/><path fill="#fff" fill-rule="evenodd" d="M36.885 42.33h-15.72L38.21 21.165h15.724L36.89 42.33zm-20.98 0H0L34.614 0h15.909zm41.796 0H41.648L59.05 21.165h16.053L57.705 42.33zM0 48.474V62.13h2.913v-5.716h2.708l3.222 5.716h3.263l-4.124-7.217 3.816-6.438H8.536l-3.14 5.521H2.913v-5.52zm12.823 11.548v-9.441l2.216-2.107h7.47l2.215 2.107v9.441l-2.216 2.107H15.04zm2.996-9.128v8.817h5.91v-8.819h-5.91zm10.992-2.42V62.13h2.852V51.965l3.385 6.184h1.396l3.385-6.184V62.13h2.853V48.474h-3.53l-3.406 6.32-3.406-6.32zM42.82 62.13V48.474h11.204V62.13H51.11V50.892h-5.376v11.236H42.82m15.91-13.655L55.387 62.13h3.057l.718-3.12h5.293l.718 3.12h3.057l-3.343-13.655zm5.294 8.447h-4.432l1.436-6.203h1.56zm5.405-6.34v9.441l2.216 2.107h7.552v-2.517h-6.772V50.99h6.567v-2.517h-7.347z" clip-rule="evenodd"/></svg>